<svg width="300" height="60" xmlns="http://www.w3.org/2000/svg">
  <linearGradient gradientTransform="rotate(25)" id="05016b49-1f6a-4952-b0fe-a6d422b439d3" x1="0%" y1="0%" x2="100%" y2="0%">
   <stop offset="0%" stop-color="#6A4F4C"/>
   <stop offset="100%" stop-color="#A0A29B"/>
  </linearGradient>
 <g>
  <g>
   <g fill="#000000" transform="matrix(2.348814633842111,0,0,2.348814633842111,120.5263580606347,170.19460742910553) ">
    <path d="m-8.21841,-54.53482l-1.26,-2.76l-5.68,0l-1.25,2.76l-0.77,0l4.51,-9.8l0.71,0l4.51,9.8l-0.77,0zm-6.66,-3.36l5.13,0l-2.57,-5.65l-2.56,5.65zm12.65,-4l0,0q1.02,0 1.85,0.47l0,0l0,0q0.83,0.48 1.29,1.32l0,0l0,0q0.47,0.84 0.47,1.92l0,0l0,0q0,1.08 -0.47,1.92l0,0l0,0q-0.46,0.85 -1.29,1.32l0,0l0,0q-0.83,0.47 -1.85,0.47l0,0l0,0q-0.96,0 -1.75,-0.46l0,0l0,0q-0.78,-0.45 -1.22,-1.26l0,0l0,4.38l-0.7,0l0,-10.03l0.68,0l0,1.73l0,0q0.43,-0.84 1.22,-1.31l0,0l0,0q0.79,-0.47 1.77,-0.47l0,0zm-0.04,6.79l0,0q0.84,0 1.51,-0.39l0,0l0,0q0.67,-0.4 1.06,-1.1l0,0l0,0q0.38,-0.7 0.38,-1.59l0,0l0,0q0,-0.9 -0.38,-1.6l0,0l0,0q-0.39,-0.7 -1.06,-1.09l0,0l0,0q-0.67,-0.39 -1.51,-0.39l0,0l0,0q-0.84,0 -1.5,0.39l0,0l0,0q-0.67,0.39 -1.05,1.09l0,0l0,0q-0.39,0.7 -0.39,1.6l0,0l0,0q0,0.89 0.39,1.59l0,0l0,0q0.38,0.7 1.05,1.1l0,0l0,0q0.66,0.39 1.5,0.39l0,0zm12.01,-3.11l-0.01,0.2l-6.29,0l0,0q0.03,0.85 0.44,1.51l0,0l0,0q0.4,0.67 1.1,1.03l0,0l0,0q0.69,0.37 1.56,0.37l0,0l0,0q0.71,0 1.32,-0.26l0,0l0,0q0.61,-0.26 1.01,-0.76l0,0l0.41,0.46l0,0q-0.48,0.57 -1.2,0.88l0,0l0,0q-0.72,0.31 -1.56,0.31l0,0l0,0q-1.09,0 -1.94,-0.48l0,0l0,0q-0.86,-0.47 -1.34,-1.31l0,0l0,0q-0.48,-0.84 -0.48,-1.92l0,0l0,0q0,-1.07 0.45,-1.91l0,0l0,0q0.46,-0.85 1.25,-1.33l0,0l0,0q0.8,-0.47 1.8,-0.47l0,0l0,0q0.99,0 1.78,0.47l0,0l0,0q0.79,0.47 1.25,1.31l0,0l0,0q0.45,0.84 0.45,1.9l0,0zm-3.48,-3.07l0,0q-0.77,0 -1.39,0.35l0,0l0,0q-0.62,0.34 -0.99,0.96l0,0l0,0q-0.37,0.63 -0.42,1.41l0,0l5.6,0l0,0q-0.05,-0.78 -0.42,-1.4l0,0l0,0q-0.38,-0.62 -1,-0.97l0,0l0,0q-0.61,-0.35 -1.38,-0.35l0,0zm11.13,6.75l-0.83,0l-2.51,-3.26l-2.5,3.26l-0.8,0l2.9,-3.76l-2.75,-3.55l0.8,0l2.35,3.04l2.36,-3.04l0.78,0l-2.74,3.55l2.94,3.76zm12.93,0l-1.26,-2.76l-5.68,0l-1.25,2.76l-0.77,0l4.51,-9.8l0.71,0l4.51,9.8l-0.77,0zm-6.66,-3.36l5.14,0l-2.58,-5.65l-2.56,5.65zm12.65,-4l0,0q1.03,0 1.85,0.47l0,0l0,0q0.83,0.48 1.3,1.32l0,0l0,0q0.47,0.84 0.47,1.92l0,0l0,0q0,1.08 -0.47,1.92l0,0l0,0q-0.47,0.85 -1.3,1.32l0,0l0,0q-0.82,0.47 -1.85,0.47l0,0l0,0q-0.96,0 -1.75,-0.46l0,0l0,0q-0.78,-0.45 -1.21,-1.26l0,0l0,4.38l-0.7,0l0,-10.03l0.67,0l0,1.73l0,0q0.43,-0.84 1.22,-1.31l0,0l0,0q0.79,-0.47 1.77,-0.47l0,0zm-0.04,6.79l0,0q0.84,0 1.51,-0.39l0,0l0,0q0.68,-0.4 1.06,-1.1l0,0l0,0q0.39,-0.7 0.39,-1.59l0,0l0,0q0,-0.9 -0.39,-1.6l0,0l0,0q-0.38,-0.7 -1.06,-1.09l0,0l0,0q-0.67,-0.39 -1.51,-0.39l0,0l0,0q-0.84,0 -1.5,0.39l0,0l0,0q-0.67,0.39 -1.05,1.09l0,0l0,0q-0.39,0.7 -0.39,1.6l0,0l0,0q0,0.89 0.39,1.59l0,0l0,0q0.38,0.7 1.05,1.1l0,0l0,0q0.66,0.39 1.5,0.39l0,0zm9.49,-6.79l0,0q1.03,0 1.85,0.47l0,0l0,0q0.83,0.48 1.3,1.32l0,0l0,0q0.47,0.84 0.47,1.92l0,0l0,0q0,1.08 -0.47,1.92l0,0l0,0q-0.47,0.85 -1.3,1.32l0,0l0,0q-0.82,0.47 -1.85,0.47l0,0l0,0q-0.96,0 -1.75,-0.46l0,0l0,0q-0.78,-0.45 -1.21,-1.26l0,0l0,4.38l-0.7,0l0,-10.03l0.67,0l0,1.73l0,0q0.43,-0.84 1.22,-1.31l0,0l0,0q0.79,-0.47 1.77,-0.47l0,0zm-0.04,6.79l0,0q0.84,0 1.51,-0.39l0,0l0,0q0.68,-0.4 1.06,-1.1l0,0l0,0q0.39,-0.7 0.39,-1.59l0,0l0,0q0,-0.9 -0.39,-1.6l0,0l0,0q-0.38,-0.7 -1.06,-1.09l0,0l0,0q-0.67,-0.39 -1.51,-0.39l0,0l0,0q-0.84,0 -1.5,0.39l0,0l0,0q-0.67,0.39 -1.05,1.09l0,0l0,0q-0.39,0.7 -0.39,1.6l0,0l0,0q0,0.89 0.39,1.59l0,0l0,0q0.38,0.7 1.05,1.1l0,0l0,0q0.66,0.39 1.5,0.39l0,0zm8.29,-6.79l0,0q1.36,0 2.09,0.69l0,0l0,0q0.72,0.69 0.72,2.04l0,0l0,4.63l-0.67,0l0,-1.3l0,0q-0.35,0.64 -1.02,1l0,0l0,0q-0.67,0.36 -1.61,0.36l0,0l0,0q-1.22,0 -1.92,-0.58l0,0l0,0q-0.71,-0.57 -0.71,-1.51l0,0l0,0q0,-0.91 0.65,-1.48l0,0l0,0q0.65,-0.56 2.08,-0.56l0,0l2.5,0l0,-0.59l0,0q0,-1.02 -0.55,-1.55l0,0l0,0q-0.55,-0.54 -1.62,-0.54l0,0l0,0q-0.72,0 -1.39,0.26l0,0l0,0q-0.66,0.25 -1.13,0.67l0,0l-0.35,-0.51l0,0q0.55,-0.49 1.32,-0.76l0,0l0,0q0.77,-0.27 1.61,-0.27l0,0zm-0.39,6.84l0,0q0.91,0 1.55,-0.42l0,0l0,0q0.63,-0.42 0.95,-1.21l0,0l0,-1.38l-2.49,0l0,0q-1.08,0 -1.56,0.4l0,0l0,0q-0.48,0.39 -0.48,1.07l0,0l0,0q0,0.72 0.53,1.13l0,0l0,0q0.53,0.41 1.5,0.41l0,0zm6.76,-5.19l0,0q0.34,-0.8 1.05,-1.23l0,0l0,0q0.71,-0.42 1.74,-0.42l0,0l0,0.68l-0.17,-0.01l0,0q-1.22,0 -1.91,0.76l0,0l0,0q-0.68,0.77 -0.68,2.12l0,0l0,3.81l-0.7,0l0,-7.31l0.67,0l0,1.6zm11.03,2.03l-0.01,0.2l-6.29,0l0,0q0.03,0.85 0.44,1.51l0,0l0,0q0.4,0.67 1.1,1.03l0,0l0,0q0.69,0.37 1.56,0.37l0,0l0,0q0.71,0 1.32,-0.26l0,0l0,0q0.61,-0.26 1.01,-0.76l0,0l0.41,0.46l0,0q-0.48,0.57 -1.2,0.88l0,0l0,0q-0.72,0.31 -1.56,0.31l0,0l0,0q-1.09,0 -1.94,-0.48l0,0l0,0q-0.86,-0.47 -1.34,-1.31l0,0l0,0q-0.48,-0.84 -0.48,-1.92l0,0l0,0q0,-1.07 0.45,-1.91l0,0l0,0q0.46,-0.85 1.25,-1.33l0,0l0,0q0.8,-0.47 1.8,-0.47l0,0l0,0q0.99,0 1.78,0.47l0,0l0,0q0.79,0.47 1.25,1.31l0,0l0,0q0.45,0.84 0.45,1.9l0,0zm-3.48,-3.07l0,0q-0.77,0 -1.39,0.35l0,0l0,0q-0.62,0.34 -0.99,0.96l0,0l0,0q-0.37,0.63 -0.42,1.41l0,0l5.6,0l0,0q-0.05,-0.78 -0.42,-1.4l0,0l0,0q-0.38,-0.62 -1,-0.97l0,0l0,0q-0.61,-0.35 -1.38,-0.35l0,0zm5.65,6.75l0,-10.39l0.7,0l0,10.39l-0.7,0z"/>
   </g>
   <g fill="url(#05016b49-1f6a-4952-b0fe-a6d422b439d3)" transform="matrix(0.5926281816533615,0,0,0.5926281816533615,47.55018688997602,163.38193286744095) ">
    <path d="m-18.36212,-258.81544l-1.625,2.813l-3.719,6.469l-0.531,0.937l0.531,0.938l25.75,44.593l-24.75,0l-0.531,0.938l-3.719,6.5l-1.625,2.781l3.219,0l41.875,0.031l3.219,-0.031l-1.625,-2.813l-34.844,-60.343l-1.625,-2.814l0,0.001zm-6.906,11.969l-1.625,2.813l-34.844,60.373l-1.625,2.784l11.813,0l0.53,-0.938l25.75,-44.594l11.844,20.47l0.5,0.937l11.813,0l-1.625,-2.781l-20.906,-36.25l-1.625,-2.814zm-0.125,24.125l-1.594,2.813l-20.938,36.218l-1.625,2.813l76.188,0l-1.625,-2.813l-3.719,-6.469l-0.562,-0.937l-52.564,0l11.813,-20.469l0.531,-0.937l-0.531,-0.938l-3.75,-6.468l-1.625,-2.813l0.001,0z"/>
   </g>
  </g>
 </g>
</svg>