<svg data-v-fde0c5aa="" xmlns="http://www.w3.org/2000/svg" viewBox="0 0 300 300" class="icon"><!----><defs data-v-fde0c5aa=""><!----></defs><rect data-v-fde0c5aa="" fill="transparent" x="0" y="0" width="300px" height="300px" class="logo-background-square"></rect><!----><defs data-v-fde0c5aa=""><linearGradient data-v-fde0c5aa="" gradientTransform="rotate(25)" id="a47159fd-79af-463d-9d78-6429bb8033ee" x1="0%" y1="0%" x2="100%" y2="0%"><stop data-v-fde0c5aa="" offset="0%" stop-color="#6A4F4C" stop-opacity="1"></stop><stop data-v-fde0c5aa="" offset="100%" stop-color="#A0A29B" stop-opacity="1"></stop></linearGradient></defs><g data-v-fde0c5aa="" id="1214adb9-ea42-4aaf-87d5-58bcb672e11d" fill="url(#a47159fd-79af-463d-9d78-6429bb8033ee)" stroke="none" transform="matrix(2.4444444444444446,0,0,2.4444444444444446,27.777777777777764,27.777775446573884)"><path style="text-indent:0;text-transform:none;block-progression:tb" d="M50 11.031l-1.625 2.813-3.719 6.469-.531.937.531.938 25.75 44.593h-24.75l-.531.938-3.719 6.5L39.781 77H43l41.875.031L88.094 77l-1.625-2.813-34.844-60.343L50 11.03zM43.094 23l-1.625 2.813L6.625 86.186 5 88.97h11.813l.53-.938 25.75-44.594 11.844 20.47.5.937H67.25l-1.625-2.781-20.906-36.25L43.094 23zm-.125 24.125l-1.594 2.813-20.938 36.218-1.625 2.813H95l-1.625-2.813-3.719-6.469-.562-.937H36.53l11.813-20.469.531-.937-.531-.938-3.75-6.468-1.625-2.813z" overflow="visible" color="#000"></path></g><!----></svg>